<mxfile host="app.diagrams.net" modified="2023-11-01T15:49:23.471Z" agent="Mozilla/5.0 (Macintosh; Intel Mac OS X 10_15_7) AppleWebKit/537.36 (KHTML, like Gecko) Chrome/118.0.0.0 Safari/537.36" etag="3MqH5824lglbuG5OfKPS" version="22.0.8" type="device">
  <diagram name="Page-1" id="Nt-T0UssJEoqFRsTD-v_">
    <mxGraphModel dx="1026" dy="692" grid="1" gridSize="10" guides="1" tooltips="1" connect="1" arrows="1" fold="1" page="1" pageScale="1" pageWidth="850" pageHeight="1100" math="0" shadow="0">
      <root>
        <mxCell id="0" />
        <mxCell id="1" parent="0" />
        <mxCell id="fjMm2GkVZy0XSw7VctNX-1" value="" style="whiteSpace=wrap;html=1;aspect=fixed;fillColor=#6495ED;rounded=1;shadow=0;glass=0;" vertex="1" parent="1">
          <mxGeometry x="120" y="160" width="40" height="40" as="geometry" />
        </mxCell>
        <mxCell id="fjMm2GkVZy0XSw7VctNX-2" value="" style="whiteSpace=wrap;html=1;aspect=fixed;fillColor=#6495ED;rounded=1;shadow=0;glass=0;" vertex="1" parent="1">
          <mxGeometry x="120" y="200" width="40" height="40" as="geometry" />
        </mxCell>
        <mxCell id="fjMm2GkVZy0XSw7VctNX-3" value="" style="whiteSpace=wrap;html=1;aspect=fixed;fillColor=#6495ED;rounded=1;shadow=0;glass=0;" vertex="1" parent="1">
          <mxGeometry x="160" y="200" width="40" height="40" as="geometry" />
        </mxCell>
        <mxCell id="fjMm2GkVZy0XSw7VctNX-4" value="" style="whiteSpace=wrap;html=1;aspect=fixed;fillColor=#6495ED;rounded=1;shadow=0;glass=0;" vertex="1" parent="1">
          <mxGeometry x="200" y="200" width="40" height="40" as="geometry" />
        </mxCell>
        <mxCell id="fjMm2GkVZy0XSw7VctNX-5" value="" style="whiteSpace=wrap;html=1;aspect=fixed;fillColor=#00FF00;rounded=1;shadow=0;glass=0;" vertex="1" parent="1">
          <mxGeometry x="120" y="120" width="40" height="40" as="geometry" />
        </mxCell>
        <mxCell id="fjMm2GkVZy0XSw7VctNX-6" value="" style="whiteSpace=wrap;html=1;aspect=fixed;fillColor=#00FF00;rounded=1;shadow=0;glass=0;" vertex="1" parent="1">
          <mxGeometry x="160" y="120" width="40" height="40" as="geometry" />
        </mxCell>
        <mxCell id="fjMm2GkVZy0XSw7VctNX-7" value="" style="whiteSpace=wrap;html=1;aspect=fixed;fillColor=#00FF00;rounded=1;shadow=0;glass=0;" vertex="1" parent="1">
          <mxGeometry x="160" y="160" width="40" height="40" as="geometry" />
        </mxCell>
        <mxCell id="fjMm2GkVZy0XSw7VctNX-8" value="" style="whiteSpace=wrap;html=1;aspect=fixed;fillColor=#00FF00;rounded=1;shadow=0;glass=0;" vertex="1" parent="1">
          <mxGeometry x="120" y="80" width="40" height="40" as="geometry" />
        </mxCell>
        <mxCell id="fjMm2GkVZy0XSw7VctNX-10" value="" style="whiteSpace=wrap;html=1;aspect=fixed;fillColor=#FFa500;rounded=1;shadow=0;glass=0;" vertex="1" parent="1">
          <mxGeometry x="200" y="160" width="40" height="40" as="geometry" />
        </mxCell>
        <mxCell id="fjMm2GkVZy0XSw7VctNX-12" value="" style="whiteSpace=wrap;html=1;aspect=fixed;fillColor=#FFa500;rounded=1;shadow=0;glass=0;" vertex="1" parent="1">
          <mxGeometry x="200" y="120" width="40" height="40" as="geometry" />
        </mxCell>
        <mxCell id="fjMm2GkVZy0XSw7VctNX-13" value="" style="whiteSpace=wrap;html=1;aspect=fixed;fillColor=#FFa500;rounded=1;shadow=0;glass=0;" vertex="1" parent="1">
          <mxGeometry x="160" y="80" width="40" height="40" as="geometry" />
        </mxCell>
        <mxCell id="fjMm2GkVZy0XSw7VctNX-14" value="" style="whiteSpace=wrap;html=1;aspect=fixed;fillColor=#FFa500;rounded=1;shadow=0;glass=0;" vertex="1" parent="1">
          <mxGeometry x="200" y="80" width="40" height="40" as="geometry" />
        </mxCell>
      </root>
    </mxGraphModel>
  </diagram>
</mxfile>
